<?xml version="1.0" encoding="UTF-8"?>
<svg width="22px" height="20px" viewBox="0 0 22 20" version="1.1" xmlns="http://www.w3.org/2000/svg" xmlns:xlink="http://www.w3.org/1999/xlink">
    <!-- Generator: sketchtool 49.3 (51167) - http://www.bohemiancoding.com/sketch -->
    <title>55D15395-D736-4448-A616-CECD50577E29</title>
    <desc>Created with sketchtool.</desc>
    <defs></defs>
    <g id="Page-1" stroke="none" stroke-width="1" fill="none" fill-rule="evenodd">
        <g id="KI-icons" transform="translate(-374.000000, -127.000000)">
            <g id="asylum" transform="translate(373.000000, 125.000000)">
                <polygon id="Shape" points="0 0 24 0 24 24 0 24"></polygon>
                <g id="Group" transform="translate(1.000000, 2.000000)" fill="#000000" fill-rule="nonzero">
                    <path d="M17.938,4.024 C17.938,5.852 16.455,7.334 14.626,7.334 C12.797,7.334 11.314,5.852 11.314,4.024 C11.314,2.196 12.797,0.714 14.626,0.714 C16.455,0.713 17.938,2.196 17.938,4.024" id="Shape"></path>
                    <polygon id="Shape" points="20.483 19.287 20.474 19.285 20.465 19.287"></polygon>
                    <path d="M21.609,18.124 L21.597,9.429 C21.597,8.867 21.009,8.241 20.447,8.241 L19.866,8.241 L19.285,8.241 L17.832,8.241 L15.738,12.652 L15.051,9.857 L15.797,8.241 L13.472,8.241 L14.306,9.861 L13.532,12.675 L11.437,8.242 L11.146,8.242 L10.274,8.242 L2.425,8.242 C1.829,8.242 1.262,8.809 1.262,9.405 C1.262,10 1.829,10.568 2.425,10.568 L10.273,10.568 L10.273,19.288 L18.993,19.288 L18.993,12.603 L19.284,12.216 L19.284,18.126 C19.284,18.685 19.914,19.281 20.474,19.288 C21.033,19.279 21.609,18.683 21.609,18.124" id="Shape"></path>
                    <path d="M5.041,18.415 L5.041,12.02 L7.657,12.02 C7.657,12.02 6.337,15.663 6.33,15.721 C6.237,16.519 7.105,17.129 7.934,17.129 C8.761,17.129 9.643,16.511 9.534,15.729 C9.526,15.669 8.239,12.02 8.239,12.02 L8.53,12.02 L8.53,11.439 L5.041,11.439 L5.041,10.858 L4.46,10.858 L4.46,11.439 L1.553,11.439 L1.553,12.02 L1.844,12.02 C1.844,12.02 0.541,15.603 0.536,15.645 C0.441,16.53 1.282,17.129 2.135,17.129 C2.988,17.129 3.849,16.455 3.734,15.649 C3.73,15.624 2.425,12.02 2.425,12.02 L4.46,12.02 L4.46,18.415 L0.391,18.415 L0.391,19.287 L9.692,19.287 L9.692,18.415 L5.041,18.415 Z M6.784,15.508 L7.936,12.44 L9.068,15.508 L6.784,15.508 Z M0.884,15.508 L2.036,12.44 L3.167,15.508 L0.884,15.508 Z" id="Shape"></path>
                </g>
            </g>
        </g>
    </g>
</svg>