<?xml version="1.0" encoding="UTF-8"?>
<svg width="18px" height="20px" viewBox="0 0 18 20" version="1.1" xmlns="http://www.w3.org/2000/svg" xmlns:xlink="http://www.w3.org/1999/xlink">
    <!-- Generator: sketchtool 49.3 (51167) - http://www.bohemiancoding.com/sketch -->
    <title>197E27F2-3742-4753-87AD-50CA937B935F</title>
    <desc>Created with sketchtool.</desc>
    <defs></defs>
    <g id="Page-1" stroke="none" stroke-width="1" fill="none" fill-rule="evenodd">
        <g id="KI-icons" transform="translate(-640.000000, -169.000000)">
            <g id="ic_assignment_black_24px" transform="translate(637.000000, 169.000000)">
                <polygon id="Shape" points="0 0 24 0 24 24 0 24"></polygon>
                <path d="M19,2 L14.82,2 C14.4,0.84 13.3,0 12,0 C10.7,0 9.6,0.84 9.18,2 L5,2 C3.9,2 3,2.9 3,4 L3,18 C3,19.1 3.9,20 5,20 L19,20 C20.1,20 21,19.1 21,18 L21,4 C21,2.9 20.1,2 19,2 Z M12,2 C12.55,2 13,2.45 13,3 C13,3.55 12.55,4 12,4 C11.45,4 11,3.55 11,3 C11,2.45 11.45,2 12,2 Z M14,16 L7,16 L7,14 L14,14 L14,16 Z M17,12 L7,12 L7,10 L17,10 L17,12 Z M17,8 L7,8 L7,6 L17,6 L17,8 Z" id="Shape" fill="#000000" fill-rule="nonzero"></path>
            </g>
        </g>
    </g>
</svg>