<?xml version="1.0" encoding="UTF-8"?>
<svg width="18px" height="18px" viewBox="0 0 18 18" version="1.1" xmlns="http://www.w3.org/2000/svg" xmlns:xlink="http://www.w3.org/1999/xlink">
    <!-- Generator: sketchtool 49.3 (51167) - http://www.bohemiancoding.com/sketch -->
    <title>D01457BC-81D7-450E-A9DC-4A1EAA3778FE</title>
    <desc>Created with sketchtool.</desc>
    <defs></defs>
    <g id="Page-1" stroke="none" stroke-width="1" fill="none" fill-rule="evenodd">
        <g id="KI-icons" transform="translate(-596.000000, -172.000000)">
            <g id="ic_local_hospital_black_24dp" transform="translate(593.000000, 169.000000)">
                <polygon id="Shape" points="0 0 24 0 24 24 0 24"></polygon>
                <path d="M19,3 L5,3 C3.9,3 3.01,3.9 3.01,5 L3,19 C3,20.1 3.9,21 5,21 L19,21 C20.1,21 21,20.1 21,19 L21,5 C21,3.9 20.1,3 19,3 Z M18,14 L14,14 L14,18 L10,18 L10,14 L6,14 L6,10 L10,10 L10,6 L14,6 L14,10 L18,10 L18,14 Z" id="Shape" fill="#000000" fill-rule="nonzero"></path>
            </g>
        </g>
    </g>
</svg>