<?xml version="1.0" encoding="UTF-8"?>
<svg width="23px" height="22px" viewBox="0 0 23 22" version="1.1" xmlns="http://www.w3.org/2000/svg" xmlns:xlink="http://www.w3.org/1999/xlink">
    <!-- Generator: sketchtool 49.3 (51167) - http://www.bohemiancoding.com/sketch -->
    <title>3995CAC2-F2DA-4BB9-A1E5-D9E86EE2AA2E</title>
    <desc>Created with sketchtool.</desc>
    <defs></defs>
    <g id="Page-1" stroke="none" stroke-width="1" fill="none" fill-rule="evenodd">
        <g id="KI-icons" transform="translate(-181.000000, -139.000000)" fill-rule="nonzero">
            <g id="language-(3)" transform="translate(180.000000, 138.000000)">
                <rect id="Rectangle-path" fill="#FFFFFF" opacity="0" x="0" y="0" width="24" height="24"></rect>
                <path d="M10.0006648,12.4655345 L9.33552938,10.9458521 L3.6099716,10.9458521 L2.92798307,12.4655345 C2.36958389,13.8129718 0.495519842,12.7402547 1.12919617,11.3939077 L5.50201228,1.69911861 C5.88963344,0.750679781 7.00530826,0.783384568 7.42551207,1.69911861 L11.8758524,11.3939077 C12.1859493,12.1188638 11.8758524,12.7402547 11.3792479,13.0509502 C10.8208487,13.1675973 10.2489671,13.0498601 10.0006648,12.4655345 Z M8.36928533,8.66305795 L6.46039156,4.39617339 L4.70879333,8.66305795 L8.36928533,8.66305795 Z" id="Shape" fill="#FFFFFF"></path>
                <path d="M18.9447471,11.0980191 C18.3490521,10.7731932 17.7533572,10.6497149 17.1831762,10.6497149 C15.9041515,10.6497149 14.6351105,11.4128332 14.6351105,11.6486657 C14.6351105,12.0079765 15.0666288,12.3995474 15.5857819,12.7922307 C16.0927328,13.1281807 16.560858,13.3306407 16.8648066,13.3306407 C17.2075808,13.3306407 18.587552,12.6921132 20.9581294,11.9056341 L21.0856991,11.9957399 C20.8948992,12.6798766 20.6930063,13.3751374 20.426774,14.0370257 C16.4355069,15.2362116 14.2557294,16.6389699 14.2557294,17.7936591 C14.2557294,19.2064291 16.409993,20.4400999 20.1350277,20.4400999 C21.1101037,20.4400999 22.0607752,20.3733549 22.9604187,20.2276282 L23.149,20.4845966 C22.0862891,21.31446 21.0845898,21.9985966 20.121716,22.4702616 C19.6535908,22.6048641 19.132219,22.626 18.6008636,22.626 C15.4704146,22.626 13,21.3478325 13,18.5222924 C13,17.3219941 13.5457764,16.0883233 14.8003964,14.7990316 C13.849725,14.1927641 13.1785976,13.475255 13.1785976,12.5330375 C13.1785976,11.9734916 13.3549765,11.3560999 13.8375227,10.5929816 C14.4321083,9.67301249 15.4593216,9 16.5475464,9 C17.6257875,9 18.5376334,9.60515503 19.3108166,10.7264717 L18.9447471,11.0980191 Z" id="Shape" fill="#FFFFFF"></path>
            </g>
        </g>
    </g>
</svg>