<?xml version="1.0" encoding="UTF-8"?>
<svg width="24px" height="18px" viewBox="0 0 24 18" version="1.1" xmlns="http://www.w3.org/2000/svg" xmlns:xlink="http://www.w3.org/1999/xlink">
    <!-- Generator: sketchtool 49.3 (51167) - http://www.bohemiancoding.com/sketch -->
    <title>70B7A674-4A39-475E-8404-8A38AA2E882A</title>
    <desc>Created with sketchtool.</desc>
    <defs>
        <polygon id="path-1" points="0 0.815411614 22.2790093 0.815411614 22.2790093 16.97952 0 16.97952"></polygon>
    </defs>
    <g id="Page-1" stroke="none" stroke-width="1" fill="none" fill-rule="evenodd">
        <g id="KI-icons" transform="translate(-612.000000, -74.000000)">
            <g id="Page-1" transform="translate(612.000000, 74.000000)">
                <path d="M16.713764,10.4312727 C16.71547,10.2961842 16.710352,10.1610957 16.696704,10.0243496 C16.642965,9.46161894 16.4058309,8.91546352 16.0219808,8.49030764 C14.7365094,7.06814878 12.7515777,7.30103144 11.2852702,8.09498726 C9.50164661,9.05966844 8.04045712,11.7805003 9.18603651,13.6518492 C9.67054067,14.44249 10.589222,14.933947 11.5309343,15.0267686 C14.1325852,15.2845141 16.685615,12.936626 16.713764,10.4312727 M1.69669401,17.454218 C1.69669401,17.454218 0.858194727,17.454218 1.15418583,16.6851251 C1.50562194,15.0508027 1.83573305,13.5001854 2.17352117,11.9503969 C2.42942125,10.774381 2.69043934,9.59919375 2.95657543,8.42566406 C3.08281947,7.86459089 3.27389153,7.31346289 3.34554356,6.74658838 C3.41890158,6.16728241 3.72598168,5.78439349 4.18745484,5.45537422 L4.31711088,5.45537422 L4.68731301,5.45537422 L5.2741772,5.45537422 L6.05126046,5.45537422 L6.99211977,5.45537422 L8.07287114,5.45537422 L9.26707153,5.45537422 L10.548278,5.45537422 L11.8926064,5.45537422 L13.2736139,5.45537422 L14.6657103,5.45537422 L16.0433058,5.45537422 L17.3808102,5.45537422 L18.6517807,5.45537422 L19.8331861,5.45537422 L20.8968774,5.45537422 L21.8181177,5.45537422 L22.571317,5.45537422 C22.8860741,5.45537422 23.2008312,5.45537422 23.5155883,5.45454545 C23.5317953,5.45454545 23.5488553,5.45537422 23.5633563,5.46117557 C23.6111243,5.4810659 23.6520683,5.56891487 23.6785113,5.61118183 C23.7186024,5.67582542 23.7561344,5.74212653 23.7885484,5.81008517 C23.8567884,5.94931751 23.9088214,6.09600872 23.9437944,6.24601498 C24.0137405,6.54022617 24.0188585,6.84852634 23.9565894,7.14439506 C23.7322504,8.21598679 23.5147353,9.25525672 23.2921022,10.2936979 C23.1266202,11.0702497 22.9491961,11.8434864 22.776037,12.6183807 C22.4902819,13.9004784 22.2139099,15.1842337 21.9145068,16.4630164 C21.7498777,17.1641507 21.3864996,17.450903 20.6648613,17.4517317 C14.3782492,17.4558756 1.69669401,17.454218 1.69669401,17.454218" id="Fill-1" fill="#000000"></path>
                <g id="Group-5">
                    <mask id="mask-2" fill="white">
                        <use xlink:href="#path-1"></use>
                    </mask>
                    <g id="Clip-4"></g>
                    <path d="M0.250812121,16.96992 C0.17190303,16.82592 0.0556606061,16.6906473 0.0234181818,16.5361745 C-0.0173090909,16.3398109 0.0072969697,16.1286109 0.0072969697,15.9243927 C0.0072969697,12.2388655 0.00984242424,8.55421091 0.0039030303,4.86955636 C0.0039030303,4.42533818 0.00220606061,3.99246545 0.254206061,3.67566545 C0.75990303,3.10490182 1.41323636,3.35973818 2.05808485,3.22359273 C2.05808485,2.92162909 2.05469091,2.63799273 2.05893333,2.35435636 C2.07590303,1.35246545 2.55869091,0.83232 3.50899394,0.823592727 C4.81650909,0.812247273 6.12487273,0.835810909 7.43238788,0.815738182 C8.23420606,0.802647273 8.76111515,1.18141091 8.88753939,2.26272 C8.9206303,2.55072 8.8926303,2.84570182 8.8926303,3.12759273 C9.1896,3.38417455 9.51626667,3.27159273 9.81408485,3.27246545 C13.3675394,3.28119273 16.9218424,3.29079273 20.4761455,3.26635636 C21.0751758,3.26286545 21.8150545,3.27072 22.1569939,3.87813818 C22.2808727,4.09893818 22.3173576,4.37559273 22.2342061,4.61646545 C22.2138424,4.67668364 22.1841455,4.73602909 22.1366303,4.77792 C22.0611152,4.84337455 21.9542061,4.85035636 21.8549333,4.85472 C20.2165091,4.91406545 18.567903,4.86344727 16.9286303,4.86344727 L11.9420848,4.86344727 L6.95553939,4.86344727 C6.26572121,4.86344727 5.57590303,4.86344727 4.88608485,4.86257455 C4.71553939,4.86257455 4.54499394,4.85995636 4.3736,4.86344727 C3.26972121,4.88701091 2.92523636,5.21515636 2.74026667,6.31304727 C2.59178182,7.19188364 2.3856,8.06024727 2.21420606,8.93384727 C2.04281212,9.80744727 1.88838788,10.6845382 1.71699394,11.5572655 C1.53881212,12.4596655 1.35469091,13.36032 1.16123636,14.2592291 C1.01614545,14.9338473 0.859175758,15.6049745 0.693721212,16.2734836 C0.634327273,16.5143564 0.535054545,16.7447564 0.4536,16.97952 C0.385721212,16.9760291 0.318690909,16.9734109 0.250812121,16.96992" id="Fill-3" fill="#000000" mask="url(#mask-2)"></path>
                </g>
                <polygon id="Fill-9" fill="#010202" points="15.2727273 12.3636364 13.5353342 12.3636364 13.2929679 14.1818182 11.5555749 14.1818182 11.7979412 12.3636364 9.81818182 12.3636364 10.0605481 10.5454545 12.0403075 10.5454545 12.2835425 8.72727273 14.0209356 8.72727273 13.7777006 10.5454545 15.5150936 10.5454545"></polygon>
            </g>
        </g>
    </g>
</svg>